<svg width="1032" height="761" viewBox="0 0 1032 761" fill="none" xmlns="http://www.w3.org/2000/svg">
<g clip-path="url(#clip0_175_1867)" filter="url(#filter0_d_175_1867)">
<rect width="1024" height="753" transform="translate(4)" fill="#121214"/>
<g opacity="0.2" filter="url(#filter1_f_175_1867)">
<ellipse cx="528.5" cy="78" rx="670.5" ry="350" fill="#338AF3"/>
</g>
<path d="M49.0349 314C50.5302 314 51.6622 314.63 52.4308 315.891C53.2134 317.138 53.6047 318.953 53.6047 321.336C53.6047 323.719 53.2134 325.541 52.4308 326.802C51.6622 328.063 50.5302 328.693 49.0349 328.693C47.5536 328.693 46.4216 328.063 45.639 326.802C44.8564 325.541 44.4651 323.719 44.4651 321.336C44.4651 318.967 44.8564 317.152 45.639 315.891C46.4216 314.63 47.5536 314 49.0349 314ZM45.9534 321.336C45.9534 323.026 46.1072 324.35 46.4146 325.306L51.0683 316.099C50.5791 315.448 49.9013 315.122 49.0349 315.122C48.0706 315.122 47.316 315.635 46.771 316.66C46.2259 317.672 45.9534 319.23 45.9534 321.336ZM49.0349 327.55C50.0131 327.55 50.7748 327.044 51.3198 326.033C51.8648 325.008 52.1373 323.442 52.1373 321.336C52.1373 319.549 51.9627 318.163 51.6133 317.18L46.9596 326.469C47.4627 327.19 48.1545 327.55 49.0349 327.55Z" fill="url(#paint0_linear_175_1867)" fill-opacity="0.6"/>
<path d="M50.2926 351.135H53.3741V352.236H45.3874V351.135H48.9511V339.455L45.5551 341.471L44.9682 340.536L49.1607 337.959H50.2926V351.135Z" fill="url(#paint1_linear_175_1867)" fill-opacity="0.6"/>
<path d="M49.0349 361.502C50.5302 361.502 51.6622 362.133 52.4308 363.393C53.2134 364.64 53.6047 366.455 53.6047 368.838C53.6047 371.221 53.2134 373.043 52.4308 374.304C51.6622 375.565 50.5302 376.195 49.0349 376.195C47.5536 376.195 46.4216 375.565 45.639 374.304C44.8564 373.043 44.4651 371.221 44.4651 368.838C44.4651 366.469 44.8564 364.654 45.639 363.393C46.4216 362.133 47.5536 361.502 49.0349 361.502ZM45.9534 368.838C45.9534 370.529 46.1072 371.852 46.4146 372.808L51.0683 363.601C50.5791 362.95 49.9013 362.624 49.0349 362.624C48.0706 362.624 47.316 363.137 46.771 364.162C46.2259 365.174 45.9534 366.732 45.9534 368.838ZM49.0349 375.052C50.0131 375.052 50.7748 374.546 51.3198 373.535C51.8648 372.51 52.1373 370.944 52.1373 368.838C52.1373 367.051 51.9627 365.665 51.6133 364.682L46.9596 373.971C47.4627 374.692 48.1545 375.052 49.0349 375.052Z" fill="url(#paint2_linear_175_1867)" fill-opacity="0.6"/>
<path d="M50.2926 398.637H53.3741V399.738H45.3874V398.637H48.9511V386.957L45.5551 388.973L44.9682 388.038L49.1607 385.461H50.2926V398.637Z" fill="url(#paint3_linear_175_1867)" fill-opacity="0.6"/>
<path d="M50.2926 422.388H53.3741V423.489H45.3874V422.388H48.9511V410.708L45.5551 412.724L44.9682 411.789L49.1607 409.212H50.2926V422.388Z" fill="url(#paint4_linear_175_1867)" fill-opacity="0.6"/>
<path d="M49.0349 432.755C50.5302 432.755 51.6622 433.386 52.4308 434.646C53.2134 435.893 53.6047 437.708 53.6047 440.091C53.6047 442.474 53.2134 444.296 52.4308 445.557C51.6622 446.818 50.5302 447.448 49.0349 447.448C47.5536 447.448 46.4216 446.818 45.639 445.557C44.8564 444.296 44.4651 442.474 44.4651 440.091C44.4651 437.722 44.8564 435.907 45.639 434.646C46.4216 433.386 47.5536 432.755 49.0349 432.755ZM45.9534 440.091C45.9534 441.782 46.1072 443.105 46.4146 444.061L51.0683 434.854C50.5791 434.203 49.9013 433.878 49.0349 433.878C48.0706 433.878 47.316 434.39 46.771 435.415C46.2259 436.427 45.9534 437.985 45.9534 440.091ZM49.0349 446.305C50.0131 446.305 50.7748 445.8 51.3198 444.788C51.8648 443.763 52.1373 442.197 52.1373 440.091C52.1373 438.304 51.9627 436.919 51.6133 435.935L46.9596 445.225C47.4627 445.945 48.1545 446.305 49.0349 446.305Z" fill="url(#paint5_linear_175_1867)" fill-opacity="0.6"/>
<path d="M50.2926 469.89H53.3741V470.992H45.3874V469.89H48.9511V458.21L45.5551 460.226L44.9682 459.291L49.1607 456.714H50.2926V469.89Z" fill="url(#paint6_linear_175_1867)" fill-opacity="0.6"/>
<path d="M49.0349 480.257C50.5302 480.257 51.6622 480.888 52.4308 482.149C53.2134 483.396 53.6047 485.211 53.6047 487.594C53.6047 489.977 53.2134 491.798 52.4308 493.059C51.6622 494.32 50.5302 494.95 49.0349 494.95C47.5536 494.95 46.4216 494.32 45.639 493.059C44.8564 491.798 44.4651 489.977 44.4651 487.594C44.4651 485.224 44.8564 483.409 45.639 482.149C46.4216 480.888 47.5536 480.257 49.0349 480.257ZM45.9534 487.594C45.9534 489.284 46.1072 490.607 46.4146 491.563L51.0683 482.356C50.5791 481.705 49.9013 481.38 49.0349 481.38C48.0706 481.38 47.316 481.892 46.771 482.918C46.2259 483.929 45.9534 485.488 45.9534 487.594ZM49.0349 493.807C50.0131 493.807 50.7748 493.302 51.3198 492.29C51.8648 491.265 52.1373 489.699 52.1373 487.594C52.1373 485.806 51.9627 484.421 51.6133 483.437L46.9596 492.727C47.4627 493.447 48.1545 493.807 49.0349 493.807Z" fill="url(#paint7_linear_175_1867)" fill-opacity="0.6"/>
<path d="M49.0349 504.008C50.5302 504.008 51.6622 504.639 52.4308 505.9C53.2134 507.147 53.6047 508.962 53.6047 511.345C53.6047 513.728 53.2134 515.549 52.4308 516.81C51.6622 518.071 50.5302 518.701 49.0349 518.701C47.5536 518.701 46.4216 518.071 45.639 516.81C44.8564 515.549 44.4651 513.728 44.4651 511.345C44.4651 508.975 44.8564 507.16 45.639 505.9C46.4216 504.639 47.5536 504.008 49.0349 504.008ZM45.9534 511.345C45.9534 513.035 46.1072 514.358 46.4146 515.314L51.0683 506.107C50.5791 505.456 49.9013 505.131 49.0349 505.131C48.0706 505.131 47.316 505.643 46.771 506.669C46.2259 507.68 45.9534 509.239 45.9534 511.345ZM49.0349 517.558C50.0131 517.558 50.7748 517.053 51.3198 516.041C51.8648 515.016 52.1373 513.451 52.1373 511.345C52.1373 509.557 51.9627 508.172 51.6133 507.188L46.9596 516.478C47.4627 517.198 48.1545 517.558 49.0349 517.558Z" fill="url(#paint8_linear_175_1867)" fill-opacity="0.6"/>
<path d="M50.2926 541.143H53.3741V542.245H45.3874V541.143H48.9511V529.464L45.5551 531.48L44.9682 530.544L49.1607 527.967H50.2926V541.143Z" fill="url(#paint9_linear_175_1867)" fill-opacity="0.6"/>
<path d="M49.0349 551.511C50.5302 551.511 51.6622 552.141 52.4308 553.402C53.2134 554.649 53.6047 556.464 53.6047 558.847C53.6047 561.23 53.2134 563.052 52.4308 564.312C51.6622 565.573 50.5302 566.204 49.0349 566.204C47.5536 566.204 46.4216 565.573 45.639 564.312C44.8564 563.052 44.4651 561.23 44.4651 558.847C44.4651 556.478 44.8564 554.663 45.639 553.402C46.4216 552.141 47.5536 551.511 49.0349 551.511ZM45.9534 558.847C45.9534 560.537 46.1072 561.86 46.4146 562.816L51.0683 553.61C50.5791 552.958 49.9013 552.633 49.0349 552.633C48.0706 552.633 47.316 553.145 46.771 554.171C46.2259 555.182 45.9534 556.741 45.9534 558.847ZM49.0349 565.061C50.0131 565.061 50.7748 564.555 51.3198 563.543C51.8648 562.518 52.1373 560.953 52.1373 558.847C52.1373 557.059 51.9627 555.674 51.6133 554.69L46.9596 563.98C47.4627 564.7 48.1545 565.061 49.0349 565.061Z" fill="url(#paint10_linear_175_1867)" fill-opacity="0.6"/>
<path d="M50.2926 588.645H53.3741V589.747H45.3874V588.645H48.9511V576.966L45.5551 578.982L44.9682 578.046L49.1607 575.469H50.2926V588.645Z" fill="url(#paint11_linear_175_1867)" fill-opacity="0.6"/>
<path d="M50.2926 612.396H53.3741V613.498H45.3874V612.396H48.9511V600.717L45.5551 602.733L44.9682 601.798L49.1607 599.221H50.2926V612.396Z" fill="url(#paint12_linear_175_1867)" fill-opacity="0.6"/>
<path d="M87.9651 361.502C89.4604 361.502 90.5924 362.133 91.361 363.393C92.1436 364.64 92.5349 366.455 92.5349 368.838C92.5349 371.221 92.1436 373.043 91.361 374.304C90.5924 375.565 89.4604 376.195 87.9651 376.195C86.4838 376.195 85.3518 375.565 84.5692 374.304C83.7866 373.043 83.3953 371.221 83.3953 368.838C83.3953 366.469 83.7866 364.654 84.5692 363.393C85.3518 362.133 86.4838 361.502 87.9651 361.502ZM84.8836 368.838C84.8836 370.529 85.0374 371.852 85.3448 372.808L89.9985 363.601C89.5093 362.95 88.8315 362.624 87.9651 362.624C87.0008 362.624 86.2462 363.137 85.7012 364.162C85.1561 365.174 84.8836 366.732 84.8836 368.838ZM87.9651 375.052C88.9433 375.052 89.705 374.546 90.25 373.535C90.795 372.51 91.0675 370.944 91.0675 368.838C91.0675 367.051 90.8928 365.665 90.5435 364.682L85.8898 373.971C86.3929 374.692 87.0847 375.052 87.9651 375.052Z" fill="url(#paint13_linear_175_1867)" fill-opacity="0.6"/>
<path d="M89.2228 398.637H92.3043V399.738H84.3176V398.637H87.8812V386.957L84.4853 388.973L83.8984 388.038L88.0909 385.461H89.2228V398.637Z" fill="url(#paint14_linear_175_1867)" fill-opacity="0.6"/>
<path d="M87.9651 409.004C89.4604 409.004 90.5924 409.635 91.361 410.895C92.1436 412.142 92.5349 413.957 92.5349 416.34C92.5349 418.723 92.1436 420.545 91.361 421.806C90.5924 423.067 89.4604 423.697 87.9651 423.697C86.4838 423.697 85.3518 423.067 84.5692 421.806C83.7866 420.545 83.3953 418.723 83.3953 416.34C83.3953 413.971 83.7866 412.156 84.5692 410.895C85.3518 409.635 86.4838 409.004 87.9651 409.004ZM84.8836 416.34C84.8836 418.031 85.0374 419.354 85.3448 420.31L89.9985 411.103C89.5093 410.452 88.8315 410.126 87.9651 410.126C87.0008 410.126 86.2462 410.639 85.7012 411.664C85.1561 412.676 84.8836 414.234 84.8836 416.34ZM87.9651 422.554C88.9433 422.554 89.705 422.049 90.25 421.037C90.795 420.012 91.0675 418.446 91.0675 416.34C91.0675 414.553 90.8928 413.168 90.5435 412.184L85.8898 421.474C86.3929 422.194 87.0847 422.554 87.9651 422.554Z" fill="url(#paint15_linear_175_1867)" fill-opacity="0.6"/>
<path d="M87.9651 432.755C89.4604 432.755 90.5924 433.386 91.361 434.646C92.1436 435.893 92.5349 437.708 92.5349 440.091C92.5349 442.474 92.1436 444.296 91.361 445.557C90.5924 446.818 89.4604 447.448 87.9651 447.448C86.4838 447.448 85.3518 446.818 84.5692 445.557C83.7866 444.296 83.3953 442.474 83.3953 440.091C83.3953 437.722 83.7866 435.907 84.5692 434.646C85.3518 433.386 86.4838 432.755 87.9651 432.755ZM84.8836 440.091C84.8836 441.782 85.0374 443.105 85.3448 444.061L89.9985 434.854C89.5093 434.203 88.8315 433.878 87.9651 433.878C87.0008 433.878 86.2462 434.39 85.7012 435.415C85.1561 436.427 84.8836 437.985 84.8836 440.091ZM87.9651 446.305C88.9433 446.305 89.705 445.8 90.25 444.788C90.795 443.763 91.0675 442.197 91.0675 440.091C91.0675 438.304 90.8928 436.919 90.5435 435.935L85.8898 445.225C86.3929 445.945 87.0847 446.305 87.9651 446.305Z" fill="url(#paint16_linear_175_1867)" fill-opacity="0.6"/>
<path d="M89.2228 469.89H92.3043V470.992H84.3176V469.89H87.8812V458.21L84.4853 460.226L83.8984 459.291L88.0909 456.714H89.2228V469.89Z" fill="url(#paint17_linear_175_1867)" fill-opacity="0.6"/>
<path d="M87.9651 480.257C89.4604 480.257 90.5924 480.888 91.361 482.149C92.1436 483.396 92.5349 485.211 92.5349 487.594C92.5349 489.977 92.1436 491.798 91.361 493.059C90.5924 494.32 89.4604 494.95 87.9651 494.95C86.4838 494.95 85.3518 494.32 84.5692 493.059C83.7866 491.798 83.3953 489.977 83.3953 487.594C83.3953 485.224 83.7866 483.409 84.5692 482.149C85.3518 480.888 86.4838 480.257 87.9651 480.257ZM84.8836 487.594C84.8836 489.284 85.0374 490.607 85.3448 491.563L89.9985 482.356C89.5093 481.705 88.8315 481.38 87.9651 481.38C87.0008 481.38 86.2462 481.892 85.7012 482.918C85.1561 483.929 84.8836 485.488 84.8836 487.594ZM87.9651 493.807C88.9433 493.807 89.705 493.302 90.25 492.29C90.795 491.265 91.0675 489.699 91.0675 487.594C91.0675 485.806 90.8928 484.421 90.5435 483.437L85.8898 492.727C86.3929 493.447 87.0847 493.807 87.9651 493.807Z" fill="url(#paint18_linear_175_1867)" fill-opacity="0.6"/>
<path d="M89.2228 517.392H92.3043V518.494H84.3176V517.392H87.8812V505.713L84.4853 507.728L83.8984 506.793L88.0909 504.216H89.2228V517.392Z" fill="url(#paint19_linear_175_1867)" fill-opacity="0.6"/>
<path d="M87.9651 527.76C89.4604 527.76 90.5924 528.39 91.361 529.651C92.1436 530.898 92.5349 532.713 92.5349 535.096C92.5349 537.479 92.1436 539.301 91.361 540.561C90.5924 541.822 89.4604 542.453 87.9651 542.453C86.4838 542.453 85.3518 541.822 84.5692 540.561C83.7866 539.301 83.3953 537.479 83.3953 535.096C83.3953 532.726 83.7866 530.911 84.5692 529.651C85.3518 528.39 86.4838 527.76 87.9651 527.76ZM84.8836 535.096C84.8836 536.786 85.0374 538.109 85.3448 539.065L89.9985 529.859C89.5093 529.207 88.8315 528.882 87.9651 528.882C87.0008 528.882 86.2462 529.394 85.7012 530.42C85.1561 531.431 84.8836 532.99 84.8836 535.096ZM87.9651 541.31C88.9433 541.31 89.705 540.804 90.25 539.792C90.795 538.767 91.0675 537.202 91.0675 535.096C91.0675 533.308 90.8928 531.923 90.5435 530.939L85.8898 540.229C86.3929 540.949 87.0847 541.31 87.9651 541.31Z" fill="url(#paint20_linear_175_1867)" fill-opacity="0.6"/>
<path d="M87.9651 551.511C89.4604 551.511 90.5924 552.141 91.361 553.402C92.1436 554.649 92.5349 556.464 92.5349 558.847C92.5349 561.23 92.1436 563.052 91.361 564.312C90.5924 565.573 89.4604 566.204 87.9651 566.204C86.4838 566.204 85.3518 565.573 84.5692 564.312C83.7866 563.052 83.3953 561.23 83.3953 558.847C83.3953 556.478 83.7866 554.663 84.5692 553.402C85.3518 552.141 86.4838 551.511 87.9651 551.511ZM84.8836 558.847C84.8836 560.537 85.0374 561.86 85.3448 562.816L89.9985 553.61C89.5093 552.958 88.8315 552.633 87.9651 552.633C87.0008 552.633 86.2462 553.145 85.7012 554.171C85.1561 555.182 84.8836 556.741 84.8836 558.847ZM87.9651 565.061C88.9433 565.061 89.705 564.555 90.25 563.543C90.795 562.518 91.0675 560.953 91.0675 558.847C91.0675 557.059 90.8928 555.674 90.5435 554.69L85.8898 563.98C86.3929 564.7 87.0847 565.061 87.9651 565.061Z" fill="url(#paint21_linear_175_1867)" fill-opacity="0.6"/>
<path d="M89.2228 588.645H92.3043V589.747H84.3176V588.645H87.8812V576.966L84.4853 578.982L83.8984 578.046L88.0909 575.469H89.2228V588.645Z" fill="url(#paint22_linear_175_1867)" fill-opacity="0.6"/>
<path d="M87.9651 599.013C89.4604 599.013 90.5924 599.643 91.361 600.904C92.1436 602.151 92.5349 603.966 92.5349 606.349C92.5349 608.732 92.1436 610.554 91.361 611.815C90.5924 613.075 89.4604 613.706 87.9651 613.706C86.4838 613.706 85.3518 613.075 84.5692 611.815C83.7866 610.554 83.3953 608.732 83.3953 606.349C83.3953 603.98 83.7866 602.165 84.5692 600.904C85.3518 599.643 86.4838 599.013 87.9651 599.013ZM84.8836 606.349C84.8836 608.039 85.0374 609.362 85.3448 610.318L89.9985 601.112C89.5093 600.461 88.8315 600.135 87.9651 600.135C87.0008 600.135 86.2462 600.648 85.7012 601.673C85.1561 602.684 84.8836 604.243 84.8836 606.349ZM87.9651 612.563C88.9433 612.563 89.705 612.057 90.25 611.046C90.795 610.02 91.0675 608.455 91.0675 606.349C91.0675 604.562 90.8928 603.176 90.5435 602.192L85.8898 611.482C86.3929 612.202 87.0847 612.563 87.9651 612.563Z" fill="url(#paint23_linear_175_1867)" fill-opacity="0.6"/>
<path d="M89.2228 636.148H92.3043V637.249H84.3176V636.148H87.8812V624.468L84.4853 626.484L83.8984 625.549L88.0909 622.972H89.2228V636.148Z" fill="url(#paint24_linear_175_1867)" fill-opacity="0.6"/>
<path d="M89.2228 659.899H92.3043V661H84.3176V659.899H87.8812V648.219L84.4853 650.235L83.8984 649.3L88.0909 646.723H89.2228V659.899Z" fill="url(#paint25_linear_175_1867)" fill-opacity="0.6"/>
<path d="M29.5698 385.253C31.0651 385.253 32.1971 385.884 32.9657 387.144C33.7483 388.391 34.1396 390.206 34.1396 392.589C34.1396 394.972 33.7483 396.794 32.9657 398.055C32.1971 399.316 31.0651 399.946 29.5698 399.946C28.0885 399.946 26.9565 399.316 26.1739 398.055C25.3913 396.794 25 394.972 25 392.589C25 390.22 25.3913 388.405 26.1739 387.144C26.9565 385.884 28.0885 385.253 29.5698 385.253ZM26.4883 392.589C26.4883 394.28 26.6421 395.603 26.9495 396.559L31.6032 387.352C31.114 386.701 30.4363 386.375 29.5698 386.375C28.6055 386.375 27.8509 386.888 27.3059 387.913C26.7608 388.925 26.4883 390.483 26.4883 392.589ZM29.5698 398.803C30.5481 398.803 31.3097 398.297 31.8547 397.286C32.3997 396.261 32.6722 394.695 32.6722 392.589C32.6722 390.802 32.4976 389.417 32.1482 388.433L27.4945 397.722C27.9976 398.443 28.6894 398.803 29.5698 398.803Z" fill="url(#paint26_linear_175_1867)" fill-opacity="0.6"/>
<path d="M29.5698 409.004C31.0651 409.004 32.1971 409.635 32.9657 410.895C33.7483 412.142 34.1396 413.957 34.1396 416.34C34.1396 418.723 33.7483 420.545 32.9657 421.806C32.1971 423.067 31.0651 423.697 29.5698 423.697C28.0885 423.697 26.9565 423.067 26.1739 421.806C25.3913 420.545 25 418.723 25 416.34C25 413.971 25.3913 412.156 26.1739 410.895C26.9565 409.635 28.0885 409.004 29.5698 409.004ZM26.4883 416.34C26.4883 418.031 26.6421 419.354 26.9495 420.31L31.6032 411.103C31.114 410.452 30.4363 410.126 29.5698 410.126C28.6055 410.126 27.8509 410.639 27.3059 411.664C26.7608 412.676 26.4883 414.234 26.4883 416.34ZM29.5698 422.554C30.5481 422.554 31.3097 422.049 31.8547 421.037C32.3997 420.012 32.6722 418.446 32.6722 416.34C32.6722 414.553 32.4976 413.168 32.1482 412.184L27.4945 421.474C27.9976 422.194 28.6894 422.554 29.5698 422.554Z" fill="url(#paint27_linear_175_1867)" fill-opacity="0.6"/>
<path d="M30.8276 446.139H33.909V447.24H25.9223V446.139H29.486V434.459L26.09 436.475L25.5031 435.54L29.6956 432.963H30.8276V446.139Z" fill="url(#paint28_linear_175_1867)" fill-opacity="0.6"/>
<path d="M29.5698 456.506C31.0651 456.506 32.1971 457.137 32.9657 458.398C33.7483 459.644 34.1396 461.459 34.1396 463.842C34.1396 466.225 33.7483 468.047 32.9657 469.308C32.1971 470.569 31.0651 471.199 29.5698 471.199C28.0885 471.199 26.9565 470.569 26.1739 469.308C25.3913 468.047 25 466.225 25 463.842C25 461.473 25.3913 459.658 26.1739 458.398C26.9565 457.137 28.0885 456.506 29.5698 456.506ZM26.4883 463.842C26.4883 465.533 26.6421 466.856 26.9495 467.812L31.6032 458.605C31.114 457.954 30.4363 457.629 29.5698 457.629C28.6055 457.629 27.8509 458.141 27.3059 459.166C26.7608 460.178 26.4883 461.737 26.4883 463.842ZM29.5698 470.056C30.5481 470.056 31.3097 469.551 31.8547 468.539C32.3997 467.514 32.6722 465.948 32.6722 463.842C32.6722 462.055 32.4976 460.67 32.1482 459.686L27.4945 468.976C27.9976 469.696 28.6894 470.056 29.5698 470.056Z" fill="url(#paint29_linear_175_1867)" fill-opacity="0.6"/>
<path d="M30.8276 493.641H33.909V494.743H25.9223V493.641H29.486V481.962L26.09 483.977L25.5031 483.042L29.6956 480.465H30.8276V493.641Z" fill="url(#paint30_linear_175_1867)" fill-opacity="0.6"/>
<path d="M30.8276 517.392H33.909V518.494H25.9223V517.392H29.486V505.713L26.09 507.728L25.5031 506.793L29.6956 504.216H30.8276V517.392Z" fill="url(#paint31_linear_175_1867)" fill-opacity="0.6"/>
<path d="M69.7577 351.135H72.8392V352.236H64.8525V351.135H68.4162V339.455L65.0202 341.471L64.4333 340.536L68.6258 337.959H69.7577V351.135Z" fill="url(#paint32_linear_175_1867)" fill-opacity="0.6"/>
<path d="M68.5 361.502C69.9953 361.502 71.1273 362.133 71.8959 363.393C72.6785 364.64 73.0698 366.455 73.0698 368.838C73.0698 371.221 72.6785 373.043 71.8959 374.304C71.1273 375.565 69.9953 376.195 68.5 376.195C67.0187 376.195 65.8867 375.565 65.1041 374.304C64.3215 373.043 63.9302 371.221 63.9302 368.838C63.9302 366.469 64.3215 364.654 65.1041 363.393C65.8867 362.133 67.0187 361.502 68.5 361.502ZM65.4185 368.838C65.4185 370.529 65.5723 371.852 65.8797 372.808L70.5334 363.601C70.0442 362.95 69.3664 362.624 68.5 362.624C67.5357 362.624 66.7811 363.137 66.2361 364.162C65.691 365.174 65.4185 366.732 65.4185 368.838ZM68.5 375.052C69.4782 375.052 70.2399 374.546 70.7849 373.535C71.3299 372.51 71.6024 370.944 71.6024 368.838C71.6024 367.051 71.4277 365.665 71.0784 364.682L66.4247 373.971C66.9278 374.692 67.6196 375.052 68.5 375.052Z" fill="url(#paint33_linear_175_1867)" fill-opacity="0.6"/>
<path d="M69.7577 398.637H72.8392V399.738H64.8525V398.637H68.4162V386.957L65.0202 388.973L64.4333 388.038L68.6258 385.461H69.7577V398.637Z" fill="url(#paint34_linear_175_1867)" fill-opacity="0.6"/>
<path d="M69.7577 422.388H72.8392V423.489H64.8525V422.388H68.4162V410.708L65.0202 412.724L64.4333 411.789L68.6258 409.212H69.7577V422.388Z" fill="url(#paint35_linear_175_1867)" fill-opacity="0.6"/>
<path d="M68.5 432.755C69.9953 432.755 71.1273 433.386 71.8959 434.646C72.6785 435.893 73.0698 437.708 73.0698 440.091C73.0698 442.474 72.6785 444.296 71.8959 445.557C71.1273 446.818 69.9953 447.448 68.5 447.448C67.0187 447.448 65.8867 446.818 65.1041 445.557C64.3215 444.296 63.9302 442.474 63.9302 440.091C63.9302 437.722 64.3215 435.907 65.1041 434.646C65.8867 433.386 67.0187 432.755 68.5 432.755ZM65.4185 440.091C65.4185 441.782 65.5723 443.105 65.8797 444.061L70.5334 434.854C70.0442 434.203 69.3664 433.878 68.5 433.878C67.5357 433.878 66.7811 434.39 66.2361 435.415C65.691 436.427 65.4185 437.985 65.4185 440.091ZM68.5 446.305C69.4782 446.305 70.2399 445.8 70.7849 444.788C71.3299 443.763 71.6024 442.197 71.6024 440.091C71.6024 438.304 71.4277 436.919 71.0784 435.935L66.4247 445.225C66.9278 445.945 67.6196 446.305 68.5 446.305Z" fill="url(#paint36_linear_175_1867)" fill-opacity="0.6"/>
<path d="M69.7577 469.89H72.8392V470.992H64.8525V469.89H68.4162V458.21L65.0202 460.226L64.4333 459.291L68.6258 456.714H69.7577V469.89Z" fill="url(#paint37_linear_175_1867)" fill-opacity="0.6"/>
<path d="M69.7577 493.641H72.8392V494.743H64.8525V493.641H68.4162V481.962L65.0202 483.977L64.4333 483.042L68.6258 480.465H69.7577V493.641Z" fill="url(#paint38_linear_175_1867)" fill-opacity="0.6"/>
<path d="M68.5 504.008C69.9953 504.008 71.1273 504.639 71.8959 505.9C72.6785 507.147 73.0698 508.962 73.0698 511.345C73.0698 513.728 72.6785 515.549 71.8959 516.81C71.1273 518.071 69.9953 518.701 68.5 518.701C67.0187 518.701 65.8867 518.071 65.1041 516.81C64.3215 515.549 63.9302 513.728 63.9302 511.345C63.9302 508.975 64.3215 507.16 65.1041 505.9C65.8867 504.639 67.0187 504.008 68.5 504.008ZM65.4185 511.345C65.4185 513.035 65.5723 514.358 65.8797 515.314L70.5334 506.107C70.0442 505.456 69.3664 505.131 68.5 505.131C67.5357 505.131 66.7811 505.643 66.2361 506.669C65.691 507.68 65.4185 509.239 65.4185 511.345ZM68.5 517.558C69.4782 517.558 70.2399 517.053 70.7849 516.041C71.3299 515.016 71.6024 513.451 71.6024 511.345C71.6024 509.557 71.4277 508.172 71.0784 507.188L66.4247 516.478C66.9278 517.198 67.6196 517.558 68.5 517.558Z" fill="url(#paint39_linear_175_1867)" fill-opacity="0.6"/>
<path d="M69.7577 541.143H72.8392V542.245H64.8525V541.143H68.4162V529.464L65.0202 531.48L64.4333 530.544L68.6258 527.967H69.7577V541.143Z" fill="url(#paint40_linear_175_1867)" fill-opacity="0.6"/>
<path d="M68.5 551.511C69.9953 551.511 71.1273 552.141 71.8959 553.402C72.6785 554.649 73.0698 556.464 73.0698 558.847C73.0698 561.23 72.6785 563.052 71.8959 564.312C71.1273 565.573 69.9953 566.204 68.5 566.204C67.0187 566.204 65.8867 565.573 65.1041 564.312C64.3215 563.052 63.9302 561.23 63.9302 558.847C63.9302 556.478 64.3215 554.663 65.1041 553.402C65.8867 552.141 67.0187 551.511 68.5 551.511ZM65.4185 558.847C65.4185 560.537 65.5723 561.86 65.8797 562.816L70.5334 553.61C70.0442 552.958 69.3664 552.633 68.5 552.633C67.5357 552.633 66.7811 553.145 66.2361 554.171C65.691 555.182 65.4185 556.741 65.4185 558.847ZM68.5 565.061C69.4782 565.061 70.2399 564.555 70.7849 563.543C71.3299 562.518 71.6024 560.953 71.6024 558.847C71.6024 557.059 71.4277 555.674 71.0784 554.69L66.4247 563.98C66.9278 564.7 67.6196 565.061 68.5 565.061Z" fill="url(#paint41_linear_175_1867)" fill-opacity="0.6"/>
<path d="M107.43 337.751C108.926 337.751 110.057 338.381 110.826 339.642C111.609 340.889 112 342.704 112 345.087C112 347.47 111.609 349.292 110.826 350.553C110.057 351.814 108.926 352.444 107.43 352.444C105.949 352.444 104.817 351.814 104.034 350.553C103.252 349.292 102.86 347.47 102.86 345.087C102.86 342.718 103.252 340.903 104.034 339.642C104.817 338.381 105.949 337.751 107.43 337.751ZM104.349 345.087C104.349 346.777 104.502 348.101 104.81 349.057L109.464 339.85C108.974 339.199 108.297 338.873 107.43 338.873C106.466 338.873 105.711 339.386 105.166 340.411C104.621 341.423 104.349 342.981 104.349 345.087ZM107.43 351.301C108.408 351.301 109.17 350.795 109.715 349.784C110.26 348.759 110.533 347.193 110.533 345.087C110.533 343.3 110.358 341.914 110.009 340.931L105.355 350.22C105.858 350.941 106.55 351.301 107.43 351.301Z" fill="url(#paint42_linear_175_1867)" fill-opacity="0.6"/>
<path d="M108.688 374.886H111.769V375.987H103.783V374.886H107.346V363.206L103.95 365.222L103.363 364.287L107.556 361.71H108.688V374.886Z" fill="url(#paint43_linear_175_1867)" fill-opacity="0.6"/>
<path d="M108.688 398.637H111.769V399.738H103.783V398.637H107.346V386.957L103.95 388.973L103.363 388.038L107.556 385.461H108.688V398.637Z" fill="url(#paint44_linear_175_1867)" fill-opacity="0.6"/>
<path d="M107.43 409.004C108.926 409.004 110.057 409.635 110.826 410.895C111.609 412.142 112 413.957 112 416.34C112 418.723 111.609 420.545 110.826 421.806C110.057 423.067 108.926 423.697 107.43 423.697C105.949 423.697 104.817 423.067 104.034 421.806C103.252 420.545 102.86 418.723 102.86 416.34C102.86 413.971 103.252 412.156 104.034 410.895C104.817 409.635 105.949 409.004 107.43 409.004ZM104.349 416.34C104.349 418.031 104.502 419.354 104.81 420.31L109.464 411.103C108.974 410.452 108.297 410.126 107.43 410.126C106.466 410.126 105.711 410.639 105.166 411.664C104.621 412.676 104.349 414.234 104.349 416.34ZM107.43 422.554C108.408 422.554 109.17 422.049 109.715 421.037C110.26 420.012 110.533 418.446 110.533 416.34C110.533 414.553 110.358 413.168 110.009 412.184L105.355 421.474C105.858 422.194 106.55 422.554 107.43 422.554Z" fill="url(#paint45_linear_175_1867)" fill-opacity="0.6"/>
<path d="M107.43 432.755C108.926 432.755 110.057 433.386 110.826 434.646C111.609 435.893 112 437.708 112 440.091C112 442.474 111.609 444.296 110.826 445.557C110.057 446.818 108.926 447.448 107.43 447.448C105.949 447.448 104.817 446.818 104.034 445.557C103.252 444.296 102.86 442.474 102.86 440.091C102.86 437.722 103.252 435.907 104.034 434.646C104.817 433.386 105.949 432.755 107.43 432.755ZM104.349 440.091C104.349 441.782 104.502 443.105 104.81 444.061L109.464 434.854C108.974 434.203 108.297 433.878 107.43 433.878C106.466 433.878 105.711 434.39 105.166 435.415C104.621 436.427 104.349 437.985 104.349 440.091ZM107.43 446.305C108.408 446.305 109.17 445.8 109.715 444.788C110.26 443.763 110.533 442.197 110.533 440.091C110.533 438.304 110.358 436.919 110.009 435.935L105.355 445.225C105.858 445.945 106.55 446.305 107.43 446.305Z" fill="url(#paint46_linear_175_1867)" fill-opacity="0.6"/>
<g opacity="0.6">
<path d="M935.93 14C937.356 14 938.436 14.605 939.17 15.8149C939.916 17.0115 940.29 18.7532 940.29 21.0401C940.29 23.327 939.916 25.0754 939.17 26.2853C938.436 27.4952 937.356 28.1002 935.93 28.1002C934.517 28.1002 933.437 27.4952 932.69 26.2853C931.943 25.0754 931.57 23.327 931.57 21.0401C931.57 18.7665 931.943 17.0248 932.69 15.8149C933.437 14.605 934.517 14 935.93 14ZM932.99 21.0401C932.99 22.6622 933.137 23.932 933.43 24.8494L937.87 16.0143C937.403 15.3894 936.756 15.077 935.93 15.077C935.01 15.077 934.29 15.5689 933.77 16.5528C933.25 17.5234 932.99 19.0192 932.99 21.0401ZM935.93 27.0033C936.863 27.0033 937.59 26.518 938.11 25.5474C938.63 24.5635 938.89 23.0611 938.89 21.0401C938.89 19.325 938.723 17.9954 938.39 17.0514L933.95 25.9662C934.43 26.6576 935.09 27.0033 935.93 27.0033Z" fill="url(#paint47_linear_175_1867)"/>
<path d="M937.13 49.6365H940.07V50.6936H932.45V49.6365H935.85V38.4282L932.61 40.3627L932.05 39.4653L936.05 36.9922H937.13V49.6365Z" fill="url(#paint48_linear_175_1867)"/>
<path d="M935.93 59.5856C937.356 59.5856 938.436 60.1906 939.17 61.4005C939.916 62.5971 940.29 64.3389 940.29 66.6257C940.29 68.9126 939.916 70.661 939.17 71.8709C938.436 73.0808 937.356 73.6858 935.93 73.6858C934.517 73.6858 933.437 73.0808 932.69 71.8709C931.943 70.661 931.57 68.9126 931.57 66.6257C931.57 64.3522 931.943 62.6104 932.69 61.4005C933.437 60.1906 934.517 59.5856 935.93 59.5856ZM932.99 66.6257C932.99 68.2478 933.137 69.5176 933.43 70.435L937.87 61.5999C937.403 60.975 936.756 60.6626 935.93 60.6626C935.01 60.6626 934.29 61.1545 933.77 62.1384C933.25 63.109 932.99 64.6048 932.99 66.6257ZM935.93 72.5889C936.863 72.5889 937.59 72.1036 938.11 71.133C938.63 70.1491 938.89 68.6467 938.89 66.6257C938.89 64.9106 938.723 63.581 938.39 62.637L933.95 71.5518C934.43 72.2432 935.09 72.5889 935.93 72.5889Z" fill="url(#paint49_linear_175_1867)"/>
<path d="M937.13 95.2221H940.07V96.2792H932.45V95.2221H935.85V84.0138L932.61 85.9483L932.05 85.0509L936.05 82.5778H937.13V95.2221Z" fill="url(#paint50_linear_175_1867)"/>
<path d="M937.13 118.015H940.07V119.072H932.45V118.015H935.85V106.807L932.61 108.741L932.05 107.844L936.05 105.371H937.13V118.015Z" fill="url(#paint51_linear_175_1867)"/>
<path d="M935.93 127.964C937.356 127.964 938.436 128.569 939.17 129.779C939.916 130.976 940.29 132.717 940.29 135.004C940.29 137.291 939.916 139.039 939.17 140.249C938.436 141.459 937.356 142.064 935.93 142.064C934.517 142.064 933.437 141.459 932.69 140.249C931.943 139.039 931.57 137.291 931.57 135.004C931.57 132.731 931.943 130.989 932.69 129.779C933.437 128.569 934.517 127.964 935.93 127.964ZM932.99 135.004C932.99 136.626 933.137 137.896 933.43 138.813L937.87 129.978C937.403 129.353 936.756 129.041 935.93 129.041C935.01 129.041 934.29 129.533 933.77 130.517C933.25 131.487 932.99 132.983 932.99 135.004ZM935.93 140.967C936.863 140.967 937.59 140.482 938.11 139.511C938.63 138.528 938.89 137.025 938.89 135.004C938.89 133.289 938.723 131.959 938.39 131.015L933.95 139.93C934.43 140.622 935.09 140.967 935.93 140.967Z" fill="url(#paint52_linear_175_1867)"/>
<path d="M937.13 163.601H940.07V164.658H932.45V163.601H935.85V152.392L932.61 154.327L932.05 153.429L936.05 150.956H937.13V163.601Z" fill="url(#paint53_linear_175_1867)"/>
<path d="M935.93 173.55C937.356 173.55 938.436 174.155 939.17 175.365C939.916 176.561 940.29 178.303 940.29 180.59C940.29 182.877 939.916 184.625 939.17 185.835C938.436 187.045 937.356 187.65 935.93 187.65C934.517 187.65 933.437 187.045 932.69 185.835C931.943 184.625 931.57 182.877 931.57 180.59C931.57 178.316 931.943 176.574 932.69 175.365C933.437 174.155 934.517 173.55 935.93 173.55ZM932.99 180.59C932.99 182.212 933.137 183.482 933.43 184.399L937.87 175.564C937.403 174.939 936.756 174.627 935.93 174.627C935.01 174.627 934.29 175.119 933.77 176.102C933.25 177.073 932.99 178.569 932.99 180.59ZM935.93 186.553C936.863 186.553 937.59 186.068 938.11 185.097C938.63 184.113 938.89 182.611 938.89 180.59C938.89 178.875 938.723 177.545 938.39 176.601L933.95 185.516C934.43 186.207 935.09 186.553 935.93 186.553Z" fill="url(#paint54_linear_175_1867)"/>
<path d="M935.93 196.342C937.356 196.342 938.436 196.947 939.17 198.157C939.916 199.354 940.29 201.096 940.29 203.383C940.29 205.669 939.916 207.418 939.17 208.628C938.436 209.838 937.356 210.443 935.93 210.443C934.517 210.443 933.437 209.838 932.69 208.628C931.943 207.418 931.57 205.669 931.57 203.383C931.57 201.109 931.943 199.367 932.69 198.157C933.437 196.947 934.517 196.342 935.93 196.342ZM932.99 203.383C932.99 205.005 933.137 206.274 933.43 207.192L937.87 198.357C937.403 197.732 936.756 197.419 935.93 197.419C935.01 197.419 934.29 197.911 933.77 198.895C933.25 199.866 932.99 201.362 932.99 203.383ZM935.93 209.346C936.863 209.346 937.59 208.86 938.11 207.89C938.63 206.906 938.89 205.404 938.89 203.383C938.89 201.667 938.723 200.338 938.39 199.394L933.95 208.309C934.43 209 935.09 209.346 935.93 209.346Z" fill="url(#paint55_linear_175_1867)"/>
<path d="M937.13 231.979H940.07V233.036H932.45V231.979H935.85V220.771L932.61 222.705L932.05 221.808L936.05 219.335H937.13V231.979Z" fill="url(#paint56_linear_175_1867)"/>
<path d="M935.93 241.928C937.356 241.928 938.436 242.533 939.17 243.743C939.916 244.94 940.29 246.681 940.29 248.968C940.29 251.255 939.916 253.003 939.17 254.213C938.436 255.423 937.356 256.028 935.93 256.028C934.517 256.028 933.437 255.423 932.69 254.213C931.943 253.003 931.57 251.255 931.57 248.968C931.57 246.695 931.943 244.953 932.69 243.743C933.437 242.533 934.517 241.928 935.93 241.928ZM932.99 248.968C932.99 250.59 933.137 251.86 933.43 252.777L937.87 243.942C937.403 243.317 936.756 243.005 935.93 243.005C935.01 243.005 934.29 243.497 933.77 244.481C933.25 245.451 932.99 246.947 932.99 248.968ZM935.93 254.931C936.863 254.931 937.59 254.446 938.11 253.475C938.63 252.492 938.89 250.989 938.89 248.968C938.89 247.253 938.723 245.923 938.39 244.979L933.95 253.894C934.43 254.586 935.09 254.931 935.93 254.931Z" fill="url(#paint57_linear_175_1867)"/>
<path d="M937.13 277.565H940.07V278.622H932.45V277.565H935.85V266.356L932.61 268.291L932.05 267.393L936.05 264.92H937.13V277.565Z" fill="url(#paint58_linear_175_1867)"/>
<path d="M937.13 300.357H940.07V301.414H932.45V300.357H935.85V289.149L932.61 291.084L932.05 290.186L936.05 287.713H937.13V300.357Z" fill="url(#paint59_linear_175_1867)"/>
<path d="M973.07 59.5856C974.497 59.5856 975.577 60.1906 976.31 61.4005C977.057 62.5971 977.43 64.3389 977.43 66.6257C977.43 68.9126 977.057 70.661 976.31 71.8709C975.577 73.0808 974.497 73.6858 973.07 73.6858C971.657 73.6858 970.577 73.0808 969.83 71.8709C969.084 70.661 968.71 68.9126 968.71 66.6257C968.71 64.3522 969.084 62.6104 969.83 61.4005C970.577 60.1906 971.657 59.5856 973.07 59.5856ZM970.13 66.6257C970.13 68.2478 970.277 69.5176 970.57 70.435L975.01 61.5999C974.543 60.975 973.897 60.6626 973.07 60.6626C972.15 60.6626 971.43 61.1545 970.91 62.1384C970.39 63.109 970.13 64.6048 970.13 66.6257ZM973.07 72.5889C974.003 72.5889 974.73 72.1036 975.25 71.133C975.77 70.1491 976.03 68.6467 976.03 66.6257C976.03 64.9106 975.863 63.581 975.53 62.637L971.09 71.5518C971.57 72.2432 972.23 72.5889 973.07 72.5889Z" fill="url(#paint60_linear_175_1867)"/>
<path d="M974.27 95.2221H977.21V96.2792H969.59V95.2221H972.99V84.0138L969.75 85.9483L969.19 85.0509L973.19 82.5778H974.27V95.2221Z" fill="url(#paint61_linear_175_1867)"/>
<path d="M973.07 105.171C974.497 105.171 975.577 105.776 976.31 106.986C977.057 108.183 977.43 109.924 977.43 112.211C977.43 114.498 977.057 116.247 976.31 117.457C975.577 118.666 974.497 119.271 973.07 119.271C971.657 119.271 970.577 118.666 969.83 117.457C969.084 116.247 968.71 114.498 968.71 112.211C968.71 109.938 969.084 108.196 969.83 106.986C970.577 105.776 971.657 105.171 973.07 105.171ZM970.13 112.211C970.13 113.833 970.277 115.103 970.57 116.021L975.01 107.186C974.543 106.561 973.897 106.248 973.07 106.248C972.15 106.248 971.43 106.74 970.91 107.724C970.39 108.695 970.13 110.19 970.13 112.211ZM973.07 118.174C974.003 118.174 974.73 117.689 975.25 116.719C975.77 115.735 976.03 114.232 976.03 112.211C976.03 110.496 975.863 109.167 975.53 108.223L971.09 117.137C971.57 117.829 972.23 118.174 973.07 118.174Z" fill="url(#paint62_linear_175_1867)"/>
<path d="M973.07 127.964C974.497 127.964 975.577 128.569 976.31 129.779C977.057 130.976 977.43 132.717 977.43 135.004C977.43 137.291 977.057 139.039 976.31 140.249C975.577 141.459 974.497 142.064 973.07 142.064C971.657 142.064 970.577 141.459 969.83 140.249C969.084 139.039 968.71 137.291 968.71 135.004C968.71 132.731 969.084 130.989 969.83 129.779C970.577 128.569 971.657 127.964 973.07 127.964ZM970.13 135.004C970.13 136.626 970.277 137.896 970.57 138.813L975.01 129.978C974.543 129.353 973.897 129.041 973.07 129.041C972.15 129.041 971.43 129.533 970.91 130.517C970.39 131.487 970.13 132.983 970.13 135.004ZM973.07 140.967C974.003 140.967 974.73 140.482 975.25 139.511C975.77 138.528 976.03 137.025 976.03 135.004C976.03 133.289 975.863 131.959 975.53 131.015L971.09 139.93C971.57 140.622 972.23 140.967 973.07 140.967Z" fill="url(#paint63_linear_175_1867)"/>
<path d="M974.27 163.601H977.21V164.658H969.59V163.601H972.99V152.392L969.75 154.327L969.19 153.429L973.19 150.956H974.27V163.601Z" fill="url(#paint64_linear_175_1867)"/>
<path d="M973.07 173.55C974.497 173.55 975.577 174.155 976.31 175.365C977.057 176.561 977.43 178.303 977.43 180.59C977.43 182.877 977.057 184.625 976.31 185.835C975.577 187.045 974.497 187.65 973.07 187.65C971.657 187.65 970.577 187.045 969.83 185.835C969.084 184.625 968.71 182.877 968.71 180.59C968.71 178.316 969.084 176.574 969.83 175.365C970.577 174.155 971.657 173.55 973.07 173.55ZM970.13 180.59C970.13 182.212 970.277 183.482 970.57 184.399L975.01 175.564C974.543 174.939 973.897 174.627 973.07 174.627C972.15 174.627 971.43 175.119 970.91 176.102C970.39 177.073 970.13 178.569 970.13 180.59ZM973.07 186.553C974.003 186.553 974.73 186.068 975.25 185.097C975.77 184.113 976.03 182.611 976.03 180.59C976.03 178.875 975.863 177.545 975.53 176.601L971.09 185.516C971.57 186.207 972.23 186.553 973.07 186.553Z" fill="url(#paint65_linear_175_1867)"/>
<path d="M974.27 209.186H977.21V210.243H969.59V209.186H972.99V197.978L969.75 199.912L969.19 199.015L973.19 196.542H974.27V209.186Z" fill="url(#paint66_linear_175_1867)"/>
<path d="M973.07 219.135C974.497 219.135 975.577 219.74 976.31 220.95C977.057 222.147 977.43 223.888 977.43 226.175C977.43 228.462 977.057 230.211 976.31 231.421C975.577 232.63 974.497 233.235 973.07 233.235C971.657 233.235 970.577 232.63 969.83 231.421C969.084 230.211 968.71 228.462 968.71 226.175C968.71 223.902 969.084 222.16 969.83 220.95C970.577 219.74 971.657 219.135 973.07 219.135ZM970.13 226.175C970.13 227.797 970.277 229.067 970.57 229.985L975.01 221.15C974.543 220.525 973.897 220.212 973.07 220.212C972.15 220.212 971.43 220.704 970.91 221.688C970.39 222.659 970.13 224.154 970.13 226.175ZM973.07 232.139C974.003 232.139 974.73 231.653 975.25 230.683C975.77 229.699 976.03 228.196 976.03 226.175C976.03 224.46 975.863 223.131 975.53 222.187L971.09 231.101C971.57 231.793 972.23 232.139 973.07 232.139Z" fill="url(#paint67_linear_175_1867)"/>
<path d="M973.07 241.928C974.497 241.928 975.577 242.533 976.31 243.743C977.057 244.94 977.43 246.681 977.43 248.968C977.43 251.255 977.057 253.003 976.31 254.213C975.577 255.423 974.497 256.028 973.07 256.028C971.657 256.028 970.577 255.423 969.83 254.213C969.084 253.003 968.71 251.255 968.71 248.968C968.71 246.695 969.084 244.953 969.83 243.743C970.577 242.533 971.657 241.928 973.07 241.928ZM970.13 248.968C970.13 250.59 970.277 251.86 970.57 252.777L975.01 243.942C974.543 243.317 973.897 243.005 973.07 243.005C972.15 243.005 971.43 243.497 970.91 244.481C970.39 245.451 970.13 246.947 970.13 248.968ZM973.07 254.931C974.003 254.931 974.73 254.446 975.25 253.475C975.77 252.492 976.03 250.989 976.03 248.968C976.03 247.253 975.863 245.923 975.53 244.979L971.09 253.894C971.57 254.586 972.23 254.931 973.07 254.931Z" fill="url(#paint68_linear_175_1867)"/>
<path d="M974.27 277.565H977.21V278.622H969.59V277.565H972.99V266.356L969.75 268.291L969.19 267.393L973.19 264.92H974.27V277.565Z" fill="url(#paint69_linear_175_1867)"/>
<path d="M973.07 287.514C974.497 287.514 975.577 288.119 976.31 289.329C977.057 290.525 977.43 292.267 977.43 294.554C977.43 296.841 977.057 298.589 976.31 299.799C975.577 301.009 974.497 301.614 973.07 301.614C971.657 301.614 970.577 301.009 969.83 299.799C969.084 298.589 968.71 296.841 968.71 294.554C968.71 292.28 969.084 290.538 969.83 289.329C970.577 288.119 971.657 287.514 973.07 287.514ZM970.13 294.554C970.13 296.176 970.277 297.446 970.57 298.363L975.01 289.528C974.543 288.903 973.897 288.591 973.07 288.591C972.15 288.591 971.43 289.083 970.91 290.066C970.39 291.037 970.13 292.533 970.13 294.554ZM973.07 300.517C974.003 300.517 974.73 300.032 975.25 299.061C975.77 298.077 976.03 296.575 976.03 294.554C976.03 292.839 975.863 291.509 975.53 290.565L971.09 299.48C971.57 300.171 972.23 300.517 973.07 300.517Z" fill="url(#paint70_linear_175_1867)"/>
<path d="M974.27 323.15H977.21V324.207H969.59V323.15H972.99V311.942L969.75 313.876L969.19 312.979L973.19 310.506H974.27V323.15Z" fill="url(#paint71_linear_175_1867)"/>
<path d="M974.27 345.943H977.21V347H969.59V345.943H972.99V334.735L969.75 336.669L969.19 335.772L973.19 333.299H974.27V345.943Z" fill="url(#paint72_linear_175_1867)"/>
<path d="M917.36 82.3784C918.786 82.3784 919.866 82.9834 920.599 84.1933C921.346 85.3899 921.719 87.1317 921.719 89.4185C921.719 91.7054 921.346 93.4538 920.599 94.6637C919.866 95.8736 918.786 96.4786 917.36 96.4786C915.946 96.4786 914.867 95.8736 914.12 94.6637C913.373 93.4538 913 91.7054 913 89.4185C913 87.145 913.373 85.4032 914.12 84.1933C914.867 82.9834 915.946 82.3784 917.36 82.3784ZM914.42 89.4185C914.42 91.0406 914.567 92.3104 914.86 93.2278L919.3 84.3927C918.833 83.7678 918.186 83.4554 917.36 83.4554C916.44 83.4554 915.72 83.9473 915.2 84.9312C914.68 85.9018 914.42 87.3976 914.42 89.4185ZM917.36 95.3817C918.293 95.3817 919.02 94.8964 919.54 93.9258C920.06 92.9419 920.319 91.4395 920.319 89.4185C920.319 87.7034 920.153 86.3738 919.82 85.4298L915.38 94.3446C915.86 95.036 916.52 95.3817 917.36 95.3817Z" fill="url(#paint73_linear_175_1867)"/>
<path d="M917.36 105.171C918.786 105.171 919.866 105.776 920.599 106.986C921.346 108.183 921.719 109.924 921.719 112.211C921.719 114.498 921.346 116.247 920.599 117.457C919.866 118.666 918.786 119.271 917.36 119.271C915.946 119.271 914.867 118.666 914.12 117.457C913.373 116.247 913 114.498 913 112.211C913 109.938 913.373 108.196 914.12 106.986C914.867 105.776 915.946 105.171 917.36 105.171ZM914.42 112.211C914.42 113.833 914.567 115.103 914.86 116.021L919.3 107.186C918.833 106.561 918.186 106.248 917.36 106.248C916.44 106.248 915.72 106.74 915.2 107.724C914.68 108.695 914.42 110.19 914.42 112.211ZM917.36 118.174C918.293 118.174 919.02 117.689 919.54 116.719C920.06 115.735 920.319 114.232 920.319 112.211C920.319 110.496 920.153 109.167 919.82 108.223L915.38 117.137C915.86 117.829 916.52 118.174 917.36 118.174Z" fill="url(#paint74_linear_175_1867)"/>
<path d="M918.56 140.808H921.499V141.865H913.88V140.808H917.28V129.599L914.04 131.534L913.48 130.636L917.48 128.163H918.56V140.808Z" fill="url(#paint75_linear_175_1867)"/>
<path d="M917.36 150.757C918.786 150.757 919.866 151.362 920.599 152.572C921.346 153.768 921.719 155.51 921.719 157.797C921.719 160.084 921.346 161.832 920.599 163.042C919.866 164.252 918.786 164.857 917.36 164.857C915.946 164.857 914.867 164.252 914.12 163.042C913.373 161.832 913 160.084 913 157.797C913 155.523 913.373 153.782 914.12 152.572C914.867 151.362 915.946 150.757 917.36 150.757ZM914.42 157.797C914.42 159.419 914.567 160.689 914.86 161.606L919.3 152.771C918.833 152.146 918.186 151.834 917.36 151.834C916.44 151.834 915.72 152.326 915.2 153.31C914.68 154.28 914.42 155.776 914.42 157.797ZM917.36 163.76C918.293 163.76 919.02 163.275 919.54 162.304C920.06 161.32 920.319 159.818 920.319 157.797C920.319 156.082 920.153 154.752 919.82 153.808L915.38 162.723C915.86 163.414 916.52 163.76 917.36 163.76Z" fill="url(#paint76_linear_175_1867)"/>
<path d="M918.56 186.393H921.499V187.45H913.88V186.393H917.28V175.185L914.04 177.12L913.48 176.222L917.48 173.749H918.56V186.393Z" fill="url(#paint77_linear_175_1867)"/>
<path d="M918.56 209.186H921.499V210.243H913.88V209.186H917.28V197.978L914.04 199.912L913.48 199.015L917.48 196.542H918.56V209.186Z" fill="url(#paint78_linear_175_1867)"/>
<path d="M955.7 49.6365H958.64V50.6936H951.02V49.6365H954.42V38.4282L951.18 40.3627L950.62 39.4653L954.62 36.9922H955.7V49.6365Z" fill="url(#paint79_linear_175_1867)"/>
<path d="M954.5 59.5856C955.927 59.5856 957.006 60.1906 957.74 61.4005C958.486 62.5971 958.86 64.3389 958.86 66.6257C958.86 68.9126 958.486 70.661 957.74 71.8709C957.006 73.0808 955.927 73.6858 954.5 73.6858C953.087 73.6858 952.007 73.0808 951.26 71.8709C950.514 70.661 950.14 68.9126 950.14 66.6257C950.14 64.3522 950.514 62.6104 951.26 61.4005C952.007 60.1906 953.087 59.5856 954.5 59.5856ZM951.56 66.6257C951.56 68.2478 951.707 69.5176 952 70.435L956.44 61.5999C955.973 60.975 955.327 60.6626 954.5 60.6626C953.58 60.6626 952.86 61.1545 952.34 62.1384C951.82 63.109 951.56 64.6048 951.56 66.6257ZM954.5 72.5889C955.433 72.5889 956.16 72.1036 956.68 71.133C957.2 70.1491 957.46 68.6467 957.46 66.6257C957.46 64.9106 957.293 63.581 956.96 62.637L952.52 71.5518C953 72.2432 953.66 72.5889 954.5 72.5889Z" fill="url(#paint80_linear_175_1867)"/>
<path d="M955.7 95.2221H958.64V96.2792H951.02V95.2221H954.42V84.0138L951.18 85.9483L950.62 85.0509L954.62 82.5778H955.7V95.2221Z" fill="url(#paint81_linear_175_1867)"/>
<path d="M955.7 118.015H958.64V119.072H951.02V118.015H954.42V106.807L951.18 108.741L950.62 107.844L954.62 105.371H955.7V118.015Z" fill="url(#paint82_linear_175_1867)"/>
<path d="M954.5 127.964C955.927 127.964 957.006 128.569 957.74 129.779C958.486 130.976 958.86 132.717 958.86 135.004C958.86 137.291 958.486 139.039 957.74 140.249C957.006 141.459 955.927 142.064 954.5 142.064C953.087 142.064 952.007 141.459 951.26 140.249C950.514 139.039 950.14 137.291 950.14 135.004C950.14 132.731 950.514 130.989 951.26 129.779C952.007 128.569 953.087 127.964 954.5 127.964ZM951.56 135.004C951.56 136.626 951.707 137.896 952 138.813L956.44 129.978C955.973 129.353 955.327 129.041 954.5 129.041C953.58 129.041 952.86 129.533 952.34 130.517C951.82 131.487 951.56 132.983 951.56 135.004ZM954.5 140.967C955.433 140.967 956.16 140.482 956.68 139.511C957.2 138.528 957.46 137.025 957.46 135.004C957.46 133.289 957.293 131.959 956.96 131.015L952.52 139.93C953 140.622 953.66 140.967 954.5 140.967Z" fill="url(#paint83_linear_175_1867)"/>
<path d="M955.7 163.601H958.64V164.658H951.02V163.601H954.42V152.392L951.18 154.327L950.62 153.429L954.62 150.956H955.7V163.601Z" fill="url(#paint84_linear_175_1867)"/>
<path d="M955.7 186.393H958.64V187.45H951.02V186.393H954.42V175.185L951.18 177.12L950.62 176.222L954.62 173.749H955.7V186.393Z" fill="url(#paint85_linear_175_1867)"/>
<path d="M954.5 196.342C955.927 196.342 957.006 196.947 957.74 198.157C958.486 199.354 958.86 201.096 958.86 203.383C958.86 205.669 958.486 207.418 957.74 208.628C957.006 209.838 955.927 210.443 954.5 210.443C953.087 210.443 952.007 209.838 951.26 208.628C950.514 207.418 950.14 205.669 950.14 203.383C950.14 201.109 950.514 199.367 951.26 198.157C952.007 196.947 953.087 196.342 954.5 196.342ZM951.56 203.383C951.56 205.005 951.707 206.274 952 207.192L956.44 198.357C955.973 197.732 955.327 197.419 954.5 197.419C953.58 197.419 952.86 197.911 952.34 198.895C951.82 199.866 951.56 201.362 951.56 203.383ZM954.5 209.346C955.433 209.346 956.16 208.86 956.68 207.89C957.2 206.906 957.46 205.404 957.46 203.383C957.46 201.667 957.293 200.338 956.96 199.394L952.52 208.309C953 209 953.66 209.346 954.5 209.346Z" fill="url(#paint86_linear_175_1867)"/>
<path d="M955.7 231.979H958.64V233.036H951.02V231.979H954.42V220.771L951.18 222.705L950.62 221.808L954.62 219.335H955.7V231.979Z" fill="url(#paint87_linear_175_1867)"/>
<path d="M954.5 241.928C955.927 241.928 957.006 242.533 957.74 243.743C958.486 244.94 958.86 246.681 958.86 248.968C958.86 251.255 958.486 253.003 957.74 254.213C957.006 255.423 955.927 256.028 954.5 256.028C953.087 256.028 952.007 255.423 951.26 254.213C950.514 253.003 950.14 251.255 950.14 248.968C950.14 246.695 950.514 244.953 951.26 243.743C952.007 242.533 953.087 241.928 954.5 241.928ZM951.56 248.968C951.56 250.59 951.707 251.86 952 252.777L956.44 243.942C955.973 243.317 955.327 243.005 954.5 243.005C953.58 243.005 952.86 243.497 952.34 244.481C951.82 245.451 951.56 246.947 951.56 248.968ZM954.5 254.931C955.433 254.931 956.16 254.446 956.68 253.475C957.2 252.492 957.46 250.989 957.46 248.968C957.46 247.253 957.293 245.923 956.96 244.979L952.52 253.894C953 254.586 953.66 254.931 954.5 254.931Z" fill="url(#paint88_linear_175_1867)"/>
<path d="M991.64 36.7928C993.067 36.7928 994.147 37.3978 994.88 38.6077C995.627 39.8043 996 41.5461 996 43.8329C996 46.1198 995.627 47.8682 994.88 49.0781C994.147 50.288 993.067 50.893 991.64 50.893C990.227 50.893 989.147 50.288 988.401 49.0781C987.654 47.8682 987.281 46.1198 987.281 43.8329C987.281 41.5593 987.654 39.8176 988.401 38.6077C989.147 37.3978 990.227 36.7928 991.64 36.7928ZM988.7 43.8329C988.7 45.455 988.847 46.7248 989.14 47.6422L993.58 38.8071C993.114 38.1822 992.467 37.8698 991.64 37.8698C990.72 37.8698 990 38.3617 989.48 39.3456C988.96 40.3162 988.7 41.812 988.7 43.8329ZM991.64 49.7961C992.574 49.7961 993.3 49.3108 993.82 48.3402C994.34 47.3563 994.6 45.8539 994.6 43.8329C994.6 42.1178 994.433 40.7882 994.1 39.8442L989.66 48.759C990.14 49.4504 990.8 49.7961 991.64 49.7961Z" fill="url(#paint89_linear_175_1867)"/>
<path d="M992.84 72.4293H995.78V73.4864H988.161V72.4293H991.56V61.221L988.321 63.1555L987.761 62.2581L991.76 59.785H992.84V72.4293Z" fill="url(#paint90_linear_175_1867)"/>
<path d="M992.84 95.2221H995.78V96.2792H988.161V95.2221H991.56V84.0138L988.321 85.9483L987.761 85.0509L991.76 82.5778H992.84V95.2221Z" fill="url(#paint91_linear_175_1867)"/>
<path d="M991.64 105.171C993.067 105.171 994.147 105.776 994.88 106.986C995.627 108.183 996 109.924 996 112.211C996 114.498 995.627 116.247 994.88 117.457C994.147 118.666 993.067 119.271 991.64 119.271C990.227 119.271 989.147 118.666 988.401 117.457C987.654 116.247 987.281 114.498 987.281 112.211C987.281 109.938 987.654 108.196 988.401 106.986C989.147 105.776 990.227 105.171 991.64 105.171ZM988.7 112.211C988.7 113.833 988.847 115.103 989.14 116.021L993.58 107.186C993.114 106.561 992.467 106.248 991.64 106.248C990.72 106.248 990 106.74 989.48 107.724C988.96 108.695 988.7 110.19 988.7 112.211ZM991.64 118.174C992.574 118.174 993.3 117.689 993.82 116.719C994.34 115.735 994.6 114.232 994.6 112.211C994.6 110.496 994.433 109.167 994.1 108.223L989.66 117.137C990.14 117.829 990.8 118.174 991.64 118.174Z" fill="url(#paint92_linear_175_1867)"/>
<path d="M991.64 127.964C993.067 127.964 994.147 128.569 994.88 129.779C995.627 130.976 996 132.717 996 135.004C996 137.291 995.627 139.039 994.88 140.249C994.147 141.459 993.067 142.064 991.64 142.064C990.227 142.064 989.147 141.459 988.401 140.249C987.654 139.039 987.281 137.291 987.281 135.004C987.281 132.731 987.654 130.989 988.401 129.779C989.147 128.569 990.227 127.964 991.64 127.964ZM988.7 135.004C988.7 136.626 988.847 137.896 989.14 138.813L993.58 129.978C993.114 129.353 992.467 129.041 991.64 129.041C990.72 129.041 990 129.533 989.48 130.517C988.96 131.487 988.7 132.983 988.7 135.004ZM991.64 140.967C992.574 140.967 993.3 140.482 993.82 139.511C994.34 138.528 994.6 137.025 994.6 135.004C994.6 133.289 994.433 131.959 994.1 131.015L989.66 139.93C990.14 140.622 990.8 140.967 991.64 140.967Z" fill="url(#paint93_linear_175_1867)"/>
</g>
</g>
<defs>
<filter id="filter0_d_175_1867" x="0" y="0" width="1032" height="761" filterUnits="userSpaceOnUse" color-interpolation-filters="sRGB">
<feFlood flood-opacity="0" result="BackgroundImageFix"/>
<feColorMatrix in="SourceAlpha" type="matrix" values="0 0 0 0 0 0 0 0 0 0 0 0 0 0 0 0 0 0 127 0" result="hardAlpha"/>
<feOffset dy="4"/>
<feGaussianBlur stdDeviation="2"/>
<feComposite in2="hardAlpha" operator="out"/>
<feColorMatrix type="matrix" values="0 0 0 0 0 0 0 0 0 0 0 0 0 0 0 0 0 0 0.25 0"/>
<feBlend mode="normal" in2="BackgroundImageFix" result="effect1_dropShadow_175_1867"/>
<feBlend mode="normal" in="SourceGraphic" in2="effect1_dropShadow_175_1867" result="shape"/>
</filter>
<filter id="filter1_f_175_1867" x="-542.19" y="-672.19" width="2141.38" height="1500.38" filterUnits="userSpaceOnUse" color-interpolation-filters="sRGB">
<feFlood flood-opacity="0" result="BackgroundImageFix"/>
<feBlend mode="normal" in="SourceGraphic" in2="BackgroundImageFix" result="shape"/>
<feGaussianBlur stdDeviation="200.095" result="effect1_foregroundBlur_175_1867"/>
</filter>
<linearGradient id="paint0_linear_175_1867" x1="68.5" y1="314" x2="68.5" y2="625.381" gradientUnits="userSpaceOnUse">
<stop stop-color="#F7DD43"/>
<stop offset="1" stop-color="#F7DD43" stop-opacity="0"/>
</linearGradient>
<linearGradient id="paint1_linear_175_1867" x1="68.5" y1="314" x2="68.5" y2="625.381" gradientUnits="userSpaceOnUse">
<stop stop-color="#F7DD43"/>
<stop offset="1" stop-color="#F7DD43" stop-opacity="0"/>
</linearGradient>
<linearGradient id="paint2_linear_175_1867" x1="68.5" y1="314" x2="68.5" y2="625.381" gradientUnits="userSpaceOnUse">
<stop stop-color="#F7DD43"/>
<stop offset="1" stop-color="#F7DD43" stop-opacity="0"/>
</linearGradient>
<linearGradient id="paint3_linear_175_1867" x1="68.5" y1="314" x2="68.5" y2="625.381" gradientUnits="userSpaceOnUse">
<stop stop-color="#F7DD43"/>
<stop offset="1" stop-color="#F7DD43" stop-opacity="0"/>
</linearGradient>
<linearGradient id="paint4_linear_175_1867" x1="68.5" y1="314" x2="68.5" y2="625.381" gradientUnits="userSpaceOnUse">
<stop stop-color="#F7DD43"/>
<stop offset="1" stop-color="#F7DD43" stop-opacity="0"/>
</linearGradient>
<linearGradient id="paint5_linear_175_1867" x1="68.5" y1="314" x2="68.5" y2="625.381" gradientUnits="userSpaceOnUse">
<stop stop-color="#F7DD43"/>
<stop offset="1" stop-color="#F7DD43" stop-opacity="0"/>
</linearGradient>
<linearGradient id="paint6_linear_175_1867" x1="68.5" y1="314" x2="68.5" y2="625.381" gradientUnits="userSpaceOnUse">
<stop stop-color="#F7DD43"/>
<stop offset="1" stop-color="#F7DD43" stop-opacity="0"/>
</linearGradient>
<linearGradient id="paint7_linear_175_1867" x1="68.5" y1="314" x2="68.5" y2="625.381" gradientUnits="userSpaceOnUse">
<stop stop-color="#F7DD43"/>
<stop offset="1" stop-color="#F7DD43" stop-opacity="0"/>
</linearGradient>
<linearGradient id="paint8_linear_175_1867" x1="68.5" y1="314" x2="68.5" y2="625.381" gradientUnits="userSpaceOnUse">
<stop stop-color="#F7DD43"/>
<stop offset="1" stop-color="#F7DD43" stop-opacity="0"/>
</linearGradient>
<linearGradient id="paint9_linear_175_1867" x1="68.5" y1="314" x2="68.5" y2="625.381" gradientUnits="userSpaceOnUse">
<stop stop-color="#F7DD43"/>
<stop offset="1" stop-color="#F7DD43" stop-opacity="0"/>
</linearGradient>
<linearGradient id="paint10_linear_175_1867" x1="68.5" y1="314" x2="68.5" y2="625.381" gradientUnits="userSpaceOnUse">
<stop stop-color="#F7DD43"/>
<stop offset="1" stop-color="#F7DD43" stop-opacity="0"/>
</linearGradient>
<linearGradient id="paint11_linear_175_1867" x1="68.5" y1="314" x2="68.5" y2="625.381" gradientUnits="userSpaceOnUse">
<stop stop-color="#F7DD43"/>
<stop offset="1" stop-color="#F7DD43" stop-opacity="0"/>
</linearGradient>
<linearGradient id="paint12_linear_175_1867" x1="68.5" y1="314" x2="68.5" y2="625.381" gradientUnits="userSpaceOnUse">
<stop stop-color="#F7DD43"/>
<stop offset="1" stop-color="#F7DD43" stop-opacity="0"/>
</linearGradient>
<linearGradient id="paint13_linear_175_1867" x1="68.5" y1="314" x2="68.5" y2="625.381" gradientUnits="userSpaceOnUse">
<stop stop-color="#F7DD43"/>
<stop offset="1" stop-color="#F7DD43" stop-opacity="0"/>
</linearGradient>
<linearGradient id="paint14_linear_175_1867" x1="68.5" y1="314" x2="68.5" y2="625.381" gradientUnits="userSpaceOnUse">
<stop stop-color="#F7DD43"/>
<stop offset="1" stop-color="#F7DD43" stop-opacity="0"/>
</linearGradient>
<linearGradient id="paint15_linear_175_1867" x1="68.5" y1="314" x2="68.5" y2="625.381" gradientUnits="userSpaceOnUse">
<stop stop-color="#F7DD43"/>
<stop offset="1" stop-color="#F7DD43" stop-opacity="0"/>
</linearGradient>
<linearGradient id="paint16_linear_175_1867" x1="68.5" y1="314" x2="68.5" y2="625.381" gradientUnits="userSpaceOnUse">
<stop stop-color="#F7DD43"/>
<stop offset="1" stop-color="#F7DD43" stop-opacity="0"/>
</linearGradient>
<linearGradient id="paint17_linear_175_1867" x1="68.5" y1="314" x2="68.5" y2="625.381" gradientUnits="userSpaceOnUse">
<stop stop-color="#F7DD43"/>
<stop offset="1" stop-color="#F7DD43" stop-opacity="0"/>
</linearGradient>
<linearGradient id="paint18_linear_175_1867" x1="68.5" y1="314" x2="68.5" y2="625.381" gradientUnits="userSpaceOnUse">
<stop stop-color="#F7DD43"/>
<stop offset="1" stop-color="#F7DD43" stop-opacity="0"/>
</linearGradient>
<linearGradient id="paint19_linear_175_1867" x1="68.5" y1="314" x2="68.5" y2="625.381" gradientUnits="userSpaceOnUse">
<stop stop-color="#F7DD43"/>
<stop offset="1" stop-color="#F7DD43" stop-opacity="0"/>
</linearGradient>
<linearGradient id="paint20_linear_175_1867" x1="68.5" y1="314" x2="68.5" y2="625.381" gradientUnits="userSpaceOnUse">
<stop stop-color="#F7DD43"/>
<stop offset="1" stop-color="#F7DD43" stop-opacity="0"/>
</linearGradient>
<linearGradient id="paint21_linear_175_1867" x1="68.5" y1="314" x2="68.5" y2="625.381" gradientUnits="userSpaceOnUse">
<stop stop-color="#F7DD43"/>
<stop offset="1" stop-color="#F7DD43" stop-opacity="0"/>
</linearGradient>
<linearGradient id="paint22_linear_175_1867" x1="68.5" y1="314" x2="68.5" y2="625.381" gradientUnits="userSpaceOnUse">
<stop stop-color="#F7DD43"/>
<stop offset="1" stop-color="#F7DD43" stop-opacity="0"/>
</linearGradient>
<linearGradient id="paint23_linear_175_1867" x1="68.5" y1="314" x2="68.5" y2="625.381" gradientUnits="userSpaceOnUse">
<stop stop-color="#F7DD43"/>
<stop offset="1" stop-color="#F7DD43" stop-opacity="0"/>
</linearGradient>
<linearGradient id="paint24_linear_175_1867" x1="68.5" y1="314" x2="68.5" y2="625.381" gradientUnits="userSpaceOnUse">
<stop stop-color="#F7DD43"/>
<stop offset="1" stop-color="#F7DD43" stop-opacity="0"/>
</linearGradient>
<linearGradient id="paint25_linear_175_1867" x1="68.5" y1="314" x2="68.5" y2="625.381" gradientUnits="userSpaceOnUse">
<stop stop-color="#F7DD43"/>
<stop offset="1" stop-color="#F7DD43" stop-opacity="0"/>
</linearGradient>
<linearGradient id="paint26_linear_175_1867" x1="68.5" y1="314" x2="68.5" y2="625.381" gradientUnits="userSpaceOnUse">
<stop stop-color="#F7DD43"/>
<stop offset="1" stop-color="#F7DD43" stop-opacity="0"/>
</linearGradient>
<linearGradient id="paint27_linear_175_1867" x1="68.5" y1="314" x2="68.5" y2="625.381" gradientUnits="userSpaceOnUse">
<stop stop-color="#F7DD43"/>
<stop offset="1" stop-color="#F7DD43" stop-opacity="0"/>
</linearGradient>
<linearGradient id="paint28_linear_175_1867" x1="68.5" y1="314" x2="68.5" y2="625.381" gradientUnits="userSpaceOnUse">
<stop stop-color="#F7DD43"/>
<stop offset="1" stop-color="#F7DD43" stop-opacity="0"/>
</linearGradient>
<linearGradient id="paint29_linear_175_1867" x1="68.5" y1="314" x2="68.5" y2="625.381" gradientUnits="userSpaceOnUse">
<stop stop-color="#F7DD43"/>
<stop offset="1" stop-color="#F7DD43" stop-opacity="0"/>
</linearGradient>
<linearGradient id="paint30_linear_175_1867" x1="68.5" y1="314" x2="68.5" y2="625.381" gradientUnits="userSpaceOnUse">
<stop stop-color="#F7DD43"/>
<stop offset="1" stop-color="#F7DD43" stop-opacity="0"/>
</linearGradient>
<linearGradient id="paint31_linear_175_1867" x1="68.5" y1="314" x2="68.5" y2="625.381" gradientUnits="userSpaceOnUse">
<stop stop-color="#F7DD43"/>
<stop offset="1" stop-color="#F7DD43" stop-opacity="0"/>
</linearGradient>
<linearGradient id="paint32_linear_175_1867" x1="68.5" y1="314" x2="68.5" y2="625.381" gradientUnits="userSpaceOnUse">
<stop stop-color="#F7DD43"/>
<stop offset="1" stop-color="#F7DD43" stop-opacity="0"/>
</linearGradient>
<linearGradient id="paint33_linear_175_1867" x1="68.5" y1="314" x2="68.5" y2="625.381" gradientUnits="userSpaceOnUse">
<stop stop-color="#F7DD43"/>
<stop offset="1" stop-color="#F7DD43" stop-opacity="0"/>
</linearGradient>
<linearGradient id="paint34_linear_175_1867" x1="68.5" y1="314" x2="68.5" y2="625.381" gradientUnits="userSpaceOnUse">
<stop stop-color="#F7DD43"/>
<stop offset="1" stop-color="#F7DD43" stop-opacity="0"/>
</linearGradient>
<linearGradient id="paint35_linear_175_1867" x1="68.5" y1="314" x2="68.5" y2="625.381" gradientUnits="userSpaceOnUse">
<stop stop-color="#F7DD43"/>
<stop offset="1" stop-color="#F7DD43" stop-opacity="0"/>
</linearGradient>
<linearGradient id="paint36_linear_175_1867" x1="68.5" y1="314" x2="68.5" y2="625.381" gradientUnits="userSpaceOnUse">
<stop stop-color="#F7DD43"/>
<stop offset="1" stop-color="#F7DD43" stop-opacity="0"/>
</linearGradient>
<linearGradient id="paint37_linear_175_1867" x1="68.5" y1="314" x2="68.5" y2="625.381" gradientUnits="userSpaceOnUse">
<stop stop-color="#F7DD43"/>
<stop offset="1" stop-color="#F7DD43" stop-opacity="0"/>
</linearGradient>
<linearGradient id="paint38_linear_175_1867" x1="68.5" y1="314" x2="68.5" y2="625.381" gradientUnits="userSpaceOnUse">
<stop stop-color="#F7DD43"/>
<stop offset="1" stop-color="#F7DD43" stop-opacity="0"/>
</linearGradient>
<linearGradient id="paint39_linear_175_1867" x1="68.5" y1="314" x2="68.5" y2="625.381" gradientUnits="userSpaceOnUse">
<stop stop-color="#F7DD43"/>
<stop offset="1" stop-color="#F7DD43" stop-opacity="0"/>
</linearGradient>
<linearGradient id="paint40_linear_175_1867" x1="68.5" y1="314" x2="68.5" y2="625.381" gradientUnits="userSpaceOnUse">
<stop stop-color="#F7DD43"/>
<stop offset="1" stop-color="#F7DD43" stop-opacity="0"/>
</linearGradient>
<linearGradient id="paint41_linear_175_1867" x1="68.5" y1="314" x2="68.5" y2="625.381" gradientUnits="userSpaceOnUse">
<stop stop-color="#F7DD43"/>
<stop offset="1" stop-color="#F7DD43" stop-opacity="0"/>
</linearGradient>
<linearGradient id="paint42_linear_175_1867" x1="68.5" y1="314" x2="68.5" y2="625.381" gradientUnits="userSpaceOnUse">
<stop stop-color="#F7DD43"/>
<stop offset="1" stop-color="#F7DD43" stop-opacity="0"/>
</linearGradient>
<linearGradient id="paint43_linear_175_1867" x1="68.5" y1="314" x2="68.5" y2="625.381" gradientUnits="userSpaceOnUse">
<stop stop-color="#F7DD43"/>
<stop offset="1" stop-color="#F7DD43" stop-opacity="0"/>
</linearGradient>
<linearGradient id="paint44_linear_175_1867" x1="68.5" y1="314" x2="68.5" y2="625.381" gradientUnits="userSpaceOnUse">
<stop stop-color="#F7DD43"/>
<stop offset="1" stop-color="#F7DD43" stop-opacity="0"/>
</linearGradient>
<linearGradient id="paint45_linear_175_1867" x1="68.5" y1="314" x2="68.5" y2="625.381" gradientUnits="userSpaceOnUse">
<stop stop-color="#F7DD43"/>
<stop offset="1" stop-color="#F7DD43" stop-opacity="0"/>
</linearGradient>
<linearGradient id="paint46_linear_175_1867" x1="68.5" y1="314" x2="68.5" y2="625.381" gradientUnits="userSpaceOnUse">
<stop stop-color="#F7DD43"/>
<stop offset="1" stop-color="#F7DD43" stop-opacity="0"/>
</linearGradient>
<linearGradient id="paint47_linear_175_1867" x1="954.5" y1="14" x2="954.5" y2="312.818" gradientUnits="userSpaceOnUse">
<stop stop-color="#F7DD43"/>
<stop offset="1" stop-color="#F7DD43" stop-opacity="0"/>
</linearGradient>
<linearGradient id="paint48_linear_175_1867" x1="954.5" y1="14" x2="954.5" y2="312.818" gradientUnits="userSpaceOnUse">
<stop stop-color="#F7DD43"/>
<stop offset="1" stop-color="#F7DD43" stop-opacity="0"/>
</linearGradient>
<linearGradient id="paint49_linear_175_1867" x1="954.5" y1="14" x2="954.5" y2="312.818" gradientUnits="userSpaceOnUse">
<stop stop-color="#F7DD43"/>
<stop offset="1" stop-color="#F7DD43" stop-opacity="0"/>
</linearGradient>
<linearGradient id="paint50_linear_175_1867" x1="954.5" y1="14" x2="954.5" y2="312.818" gradientUnits="userSpaceOnUse">
<stop stop-color="#F7DD43"/>
<stop offset="1" stop-color="#F7DD43" stop-opacity="0"/>
</linearGradient>
<linearGradient id="paint51_linear_175_1867" x1="954.5" y1="14" x2="954.5" y2="312.818" gradientUnits="userSpaceOnUse">
<stop stop-color="#F7DD43"/>
<stop offset="1" stop-color="#F7DD43" stop-opacity="0"/>
</linearGradient>
<linearGradient id="paint52_linear_175_1867" x1="954.5" y1="14" x2="954.5" y2="312.818" gradientUnits="userSpaceOnUse">
<stop stop-color="#F7DD43"/>
<stop offset="1" stop-color="#F7DD43" stop-opacity="0"/>
</linearGradient>
<linearGradient id="paint53_linear_175_1867" x1="954.5" y1="14" x2="954.5" y2="312.818" gradientUnits="userSpaceOnUse">
<stop stop-color="#F7DD43"/>
<stop offset="1" stop-color="#F7DD43" stop-opacity="0"/>
</linearGradient>
<linearGradient id="paint54_linear_175_1867" x1="954.5" y1="14" x2="954.5" y2="312.818" gradientUnits="userSpaceOnUse">
<stop stop-color="#F7DD43"/>
<stop offset="1" stop-color="#F7DD43" stop-opacity="0"/>
</linearGradient>
<linearGradient id="paint55_linear_175_1867" x1="954.5" y1="14" x2="954.5" y2="312.818" gradientUnits="userSpaceOnUse">
<stop stop-color="#F7DD43"/>
<stop offset="1" stop-color="#F7DD43" stop-opacity="0"/>
</linearGradient>
<linearGradient id="paint56_linear_175_1867" x1="954.5" y1="14" x2="954.5" y2="312.818" gradientUnits="userSpaceOnUse">
<stop stop-color="#F7DD43"/>
<stop offset="1" stop-color="#F7DD43" stop-opacity="0"/>
</linearGradient>
<linearGradient id="paint57_linear_175_1867" x1="954.5" y1="14" x2="954.5" y2="312.818" gradientUnits="userSpaceOnUse">
<stop stop-color="#F7DD43"/>
<stop offset="1" stop-color="#F7DD43" stop-opacity="0"/>
</linearGradient>
<linearGradient id="paint58_linear_175_1867" x1="954.5" y1="14" x2="954.5" y2="312.818" gradientUnits="userSpaceOnUse">
<stop stop-color="#F7DD43"/>
<stop offset="1" stop-color="#F7DD43" stop-opacity="0"/>
</linearGradient>
<linearGradient id="paint59_linear_175_1867" x1="954.5" y1="14" x2="954.5" y2="312.818" gradientUnits="userSpaceOnUse">
<stop stop-color="#F7DD43"/>
<stop offset="1" stop-color="#F7DD43" stop-opacity="0"/>
</linearGradient>
<linearGradient id="paint60_linear_175_1867" x1="954.5" y1="14" x2="954.5" y2="312.818" gradientUnits="userSpaceOnUse">
<stop stop-color="#F7DD43"/>
<stop offset="1" stop-color="#F7DD43" stop-opacity="0"/>
</linearGradient>
<linearGradient id="paint61_linear_175_1867" x1="954.5" y1="14" x2="954.5" y2="312.818" gradientUnits="userSpaceOnUse">
<stop stop-color="#F7DD43"/>
<stop offset="1" stop-color="#F7DD43" stop-opacity="0"/>
</linearGradient>
<linearGradient id="paint62_linear_175_1867" x1="954.5" y1="14" x2="954.5" y2="312.818" gradientUnits="userSpaceOnUse">
<stop stop-color="#F7DD43"/>
<stop offset="1" stop-color="#F7DD43" stop-opacity="0"/>
</linearGradient>
<linearGradient id="paint63_linear_175_1867" x1="954.5" y1="14" x2="954.5" y2="312.818" gradientUnits="userSpaceOnUse">
<stop stop-color="#F7DD43"/>
<stop offset="1" stop-color="#F7DD43" stop-opacity="0"/>
</linearGradient>
<linearGradient id="paint64_linear_175_1867" x1="954.5" y1="14" x2="954.5" y2="312.818" gradientUnits="userSpaceOnUse">
<stop stop-color="#F7DD43"/>
<stop offset="1" stop-color="#F7DD43" stop-opacity="0"/>
</linearGradient>
<linearGradient id="paint65_linear_175_1867" x1="954.5" y1="14" x2="954.5" y2="312.818" gradientUnits="userSpaceOnUse">
<stop stop-color="#F7DD43"/>
<stop offset="1" stop-color="#F7DD43" stop-opacity="0"/>
</linearGradient>
<linearGradient id="paint66_linear_175_1867" x1="954.5" y1="14" x2="954.5" y2="312.818" gradientUnits="userSpaceOnUse">
<stop stop-color="#F7DD43"/>
<stop offset="1" stop-color="#F7DD43" stop-opacity="0"/>
</linearGradient>
<linearGradient id="paint67_linear_175_1867" x1="954.5" y1="14" x2="954.5" y2="312.818" gradientUnits="userSpaceOnUse">
<stop stop-color="#F7DD43"/>
<stop offset="1" stop-color="#F7DD43" stop-opacity="0"/>
</linearGradient>
<linearGradient id="paint68_linear_175_1867" x1="954.5" y1="14" x2="954.5" y2="312.818" gradientUnits="userSpaceOnUse">
<stop stop-color="#F7DD43"/>
<stop offset="1" stop-color="#F7DD43" stop-opacity="0"/>
</linearGradient>
<linearGradient id="paint69_linear_175_1867" x1="954.5" y1="14" x2="954.5" y2="312.818" gradientUnits="userSpaceOnUse">
<stop stop-color="#F7DD43"/>
<stop offset="1" stop-color="#F7DD43" stop-opacity="0"/>
</linearGradient>
<linearGradient id="paint70_linear_175_1867" x1="954.5" y1="14" x2="954.5" y2="312.818" gradientUnits="userSpaceOnUse">
<stop stop-color="#F7DD43"/>
<stop offset="1" stop-color="#F7DD43" stop-opacity="0"/>
</linearGradient>
<linearGradient id="paint71_linear_175_1867" x1="954.5" y1="14" x2="954.5" y2="312.818" gradientUnits="userSpaceOnUse">
<stop stop-color="#F7DD43"/>
<stop offset="1" stop-color="#F7DD43" stop-opacity="0"/>
</linearGradient>
<linearGradient id="paint72_linear_175_1867" x1="954.5" y1="14" x2="954.5" y2="312.818" gradientUnits="userSpaceOnUse">
<stop stop-color="#F7DD43"/>
<stop offset="1" stop-color="#F7DD43" stop-opacity="0"/>
</linearGradient>
<linearGradient id="paint73_linear_175_1867" x1="954.5" y1="14" x2="954.5" y2="312.818" gradientUnits="userSpaceOnUse">
<stop stop-color="#F7DD43"/>
<stop offset="1" stop-color="#F7DD43" stop-opacity="0"/>
</linearGradient>
<linearGradient id="paint74_linear_175_1867" x1="954.5" y1="14" x2="954.5" y2="312.818" gradientUnits="userSpaceOnUse">
<stop stop-color="#F7DD43"/>
<stop offset="1" stop-color="#F7DD43" stop-opacity="0"/>
</linearGradient>
<linearGradient id="paint75_linear_175_1867" x1="954.5" y1="14" x2="954.5" y2="312.818" gradientUnits="userSpaceOnUse">
<stop stop-color="#F7DD43"/>
<stop offset="1" stop-color="#F7DD43" stop-opacity="0"/>
</linearGradient>
<linearGradient id="paint76_linear_175_1867" x1="954.5" y1="14" x2="954.5" y2="312.818" gradientUnits="userSpaceOnUse">
<stop stop-color="#F7DD43"/>
<stop offset="1" stop-color="#F7DD43" stop-opacity="0"/>
</linearGradient>
<linearGradient id="paint77_linear_175_1867" x1="954.5" y1="14" x2="954.5" y2="312.818" gradientUnits="userSpaceOnUse">
<stop stop-color="#F7DD43"/>
<stop offset="1" stop-color="#F7DD43" stop-opacity="0"/>
</linearGradient>
<linearGradient id="paint78_linear_175_1867" x1="954.5" y1="14" x2="954.5" y2="312.818" gradientUnits="userSpaceOnUse">
<stop stop-color="#F7DD43"/>
<stop offset="1" stop-color="#F7DD43" stop-opacity="0"/>
</linearGradient>
<linearGradient id="paint79_linear_175_1867" x1="954.5" y1="14" x2="954.5" y2="312.818" gradientUnits="userSpaceOnUse">
<stop stop-color="#F7DD43"/>
<stop offset="1" stop-color="#F7DD43" stop-opacity="0"/>
</linearGradient>
<linearGradient id="paint80_linear_175_1867" x1="954.5" y1="14" x2="954.5" y2="312.818" gradientUnits="userSpaceOnUse">
<stop stop-color="#F7DD43"/>
<stop offset="1" stop-color="#F7DD43" stop-opacity="0"/>
</linearGradient>
<linearGradient id="paint81_linear_175_1867" x1="954.5" y1="14" x2="954.5" y2="312.818" gradientUnits="userSpaceOnUse">
<stop stop-color="#F7DD43"/>
<stop offset="1" stop-color="#F7DD43" stop-opacity="0"/>
</linearGradient>
<linearGradient id="paint82_linear_175_1867" x1="954.5" y1="14" x2="954.5" y2="312.818" gradientUnits="userSpaceOnUse">
<stop stop-color="#F7DD43"/>
<stop offset="1" stop-color="#F7DD43" stop-opacity="0"/>
</linearGradient>
<linearGradient id="paint83_linear_175_1867" x1="954.5" y1="14" x2="954.5" y2="312.818" gradientUnits="userSpaceOnUse">
<stop stop-color="#F7DD43"/>
<stop offset="1" stop-color="#F7DD43" stop-opacity="0"/>
</linearGradient>
<linearGradient id="paint84_linear_175_1867" x1="954.5" y1="14" x2="954.5" y2="312.818" gradientUnits="userSpaceOnUse">
<stop stop-color="#F7DD43"/>
<stop offset="1" stop-color="#F7DD43" stop-opacity="0"/>
</linearGradient>
<linearGradient id="paint85_linear_175_1867" x1="954.5" y1="14" x2="954.5" y2="312.818" gradientUnits="userSpaceOnUse">
<stop stop-color="#F7DD43"/>
<stop offset="1" stop-color="#F7DD43" stop-opacity="0"/>
</linearGradient>
<linearGradient id="paint86_linear_175_1867" x1="954.5" y1="14" x2="954.5" y2="312.818" gradientUnits="userSpaceOnUse">
<stop stop-color="#F7DD43"/>
<stop offset="1" stop-color="#F7DD43" stop-opacity="0"/>
</linearGradient>
<linearGradient id="paint87_linear_175_1867" x1="954.5" y1="14" x2="954.5" y2="312.818" gradientUnits="userSpaceOnUse">
<stop stop-color="#F7DD43"/>
<stop offset="1" stop-color="#F7DD43" stop-opacity="0"/>
</linearGradient>
<linearGradient id="paint88_linear_175_1867" x1="954.5" y1="14" x2="954.5" y2="312.818" gradientUnits="userSpaceOnUse">
<stop stop-color="#F7DD43"/>
<stop offset="1" stop-color="#F7DD43" stop-opacity="0"/>
</linearGradient>
<linearGradient id="paint89_linear_175_1867" x1="954.5" y1="14" x2="954.5" y2="312.818" gradientUnits="userSpaceOnUse">
<stop stop-color="#F7DD43"/>
<stop offset="1" stop-color="#F7DD43" stop-opacity="0"/>
</linearGradient>
<linearGradient id="paint90_linear_175_1867" x1="954.5" y1="14" x2="954.5" y2="312.818" gradientUnits="userSpaceOnUse">
<stop stop-color="#F7DD43"/>
<stop offset="1" stop-color="#F7DD43" stop-opacity="0"/>
</linearGradient>
<linearGradient id="paint91_linear_175_1867" x1="954.5" y1="14" x2="954.5" y2="312.818" gradientUnits="userSpaceOnUse">
<stop stop-color="#F7DD43"/>
<stop offset="1" stop-color="#F7DD43" stop-opacity="0"/>
</linearGradient>
<linearGradient id="paint92_linear_175_1867" x1="954.5" y1="14" x2="954.5" y2="312.818" gradientUnits="userSpaceOnUse">
<stop stop-color="#F7DD43"/>
<stop offset="1" stop-color="#F7DD43" stop-opacity="0"/>
</linearGradient>
<linearGradient id="paint93_linear_175_1867" x1="954.5" y1="14" x2="954.5" y2="312.818" gradientUnits="userSpaceOnUse">
<stop stop-color="#F7DD43"/>
<stop offset="1" stop-color="#F7DD43" stop-opacity="0"/>
</linearGradient>
<clipPath id="clip0_175_1867">
<rect width="1024" height="753" fill="white" transform="translate(4)"/>
</clipPath>
</defs>
</svg>
